<svg width="32" height="32" viewBox="0 0 32 32" fill="none" xmlns="http://www.w3.org/2000/svg">
<path fill-rule="evenodd" clip-rule="evenodd" d="M0 16C0 7.16344 7.16343 0 16 0C24.8365 0 32 7.16344 32 16C32 24.8364 24.8365 32 16 32C7.16343 32 0 24.8364 0 16ZM16 2.29508C8.431 2.29508 2.29509 8.43098 2.29509 16C2.29509 23.5688 8.431 29.7049 16 29.7049C23.5689 29.7049 29.705 23.5688 29.705 16C29.705 8.43098 23.5689 2.29508 16 2.29508ZM15.0929 19.6242C14.9609 19.9318 13.1773 26.7732 13.1773 26.7732C13.0046 27.4178 12.3423 27.8002 11.6979 27.6275C11.0535 27.4548 10.6711 26.7926 10.8438 26.148C10.8438 26.148 12.9719 19.3166 12.9719 17.8607V14.3116L8.2392 13.0435C7.59481 12.8708 7.2124 12.2085 7.38507 11.5641C7.55773 10.9197 8.22009 10.5373 8.86448 10.71C8.86448 10.71 12.8603 12.0689 14.4194 12.0689H17.5824C19.1416 12.0689 23.135 10.7106 23.135 10.7106C23.7795 10.5379 24.4417 10.9203 24.6145 11.5647C24.7872 12.2091 24.4048 12.8715 23.7602 13.0442L19.0116 14.3165V17.8607C19.0116 19.3166 21.1376 26.14 21.1376 26.14C21.3103 26.7846 20.9278 27.4468 20.2834 27.6195C19.639 27.7923 18.9767 27.4098 18.804 26.7655C18.804 26.7655 17.0144 19.9318 16.8905 19.6242C16.7728 19.3166 16.3624 19.3166 16.3624 19.3166H15.621C15.621 19.3166 15.2025 19.3166 15.0929 19.6242ZM16.0009 10.2507C17.502 10.2507 18.7188 9.03389 18.7188 7.53285C18.7188 6.03182 17.502 4.81499 16.0009 4.81499C14.4999 4.81499 13.2831 6.03182 13.2831 7.53285C13.2831 9.03389 14.4999 10.2507 16.0009 10.2507Z" fill="#035F87"/>
</svg>
